<?xml version="1.0" ?><svg viewBox="0 0 22.575 22.556" xmlns="http://www.w3.org/2000/svg"><g data-name="Layer 2" id="Layer_2"><g data-name="Layer 1" id="Layer_1-2"><path d="M21.321,1.825H13.363A5.886,5.886,0,0,0,11.435.034a.342.342,0,0,0-.3,0A5.884,5.884,0,0,0,9.211,1.825H1.254A1.255,1.255,0,0,0,0,3.078V19.021a1.256,1.256,0,0,0,1.254,1.254H6.841v1.6H4.447a.343.343,0,0,0,0,.685H18.129a.343.343,0,0,0,0-.685h-2.4v-1.6h5.587a1.255,1.255,0,0,0,1.254-1.254V3.078A1.255,1.255,0,0,0,21.321,1.825ZM11.286.732a5.587,5.587,0,0,1,2.14,2.491H9.147A5.593,5.593,0,0,1,11.286.732Zm2.408,3.175c.581,1.771.644,4.392-.879,8.158H9.761C8.238,8.3,8.3,5.679,8.881,3.907Zm.894,4.43a5.454,5.454,0,0,1,1.812,5.3l-2.924-1.4A17.947,17.947,0,0,0,14.588,8.337Zm-1.566,5.78H9.552l.265-1.347h2.94ZM9.1,12.239l-2.923,1.4a5.455,5.455,0,0,1,1.811-5.3A18.06,18.06,0,0,0,9.1,12.239Zm5.951,9.632H7.525v-1.6H15.05Zm6.841-4.561H14.023a.343.343,0,0,0,0,.685h7.868c-.049.507.239,1.575-.57,1.6H1.254C.447,19.571.732,18.5.684,18H8.549a.343.343,0,0,0,0-.685H.684V3.078a.57.57,0,0,1,.57-.569H8.786a8.64,8.64,0,0,0-.9,5.005A6.221,6.221,0,0,0,5.637,14.24a.344.344,0,0,0,.468.191L9.073,13.01,8.8,14.393a.346.346,0,0,0,.336.409h4.3a.344.344,0,0,0,.335-.409L13.5,13.009l2.97,1.422a.344.344,0,0,0,.468-.191,6.221,6.221,0,0,0-2.253-6.726,8.639,8.639,0,0,0-.9-5.005h7.533a.57.57,0,0,1,.57.569ZM11.286,8.3a1.482,1.482,0,0,0,0-2.964A1.482,1.482,0,0,0,11.286,8.3Zm0-2.28a.8.8,0,0,1,0,1.6A.8.8,0,0,1,11.286,6.02Zm-.568,9.808v1.824a.342.342,0,0,1-.684,0V15.828A.342.342,0,0,1,10.718,15.828Zm1.824.912v1.825a.342.342,0,0,1-.684,0V16.74A.342.342,0,0,1,12.542,16.74Z" id="launch"/></g></g></svg>